<svg width="26" height="26" viewBox="0 0 26 26" fill="none" xmlns="http://www.w3.org/2000/svg">
<path d="M20.1578 20.1578C18.7594 20.1578 17.6381 21.2791 17.6381 22.6776C17.6381 23.3458 17.9036 23.9867 18.3761 24.4593C18.8486 24.9318 19.4896 25.1973 20.1578 25.1973C20.8261 25.1973 21.467 24.9318 21.9395 24.4593C22.4121 23.9867 22.6776 23.3458 22.6776 22.6776C22.6776 21.2791 21.5437 20.1578 20.1578 20.1578ZM0 0V2.51973H2.51973L7.05524 12.0821L5.34182 15.1688C5.15284 15.5215 5.03946 15.9373 5.03946 16.3782C5.03946 17.0465 5.30493 17.6874 5.77747 18.16C6.25001 18.6325 6.89091 18.898 7.55918 18.898H22.6776V16.3782H8.08833C8.00479 16.3782 7.92468 16.345 7.86561 16.286C7.80655 16.2269 7.77336 16.1468 7.77336 16.0633C7.77336 16.0003 7.78596 15.9499 7.81116 15.9121L8.94504 13.8585H18.331C19.2759 13.8585 20.1074 13.3294 20.5358 12.5608L25.0461 4.40952C25.1343 4.20795 25.1973 3.99377 25.1973 3.77959C25.1973 3.44546 25.0645 3.125 24.8283 2.88873C24.592 2.65246 24.2716 2.51973 23.9374 2.51973H5.30403L4.11976 0H0ZM7.55918 20.1578C6.16074 20.1578 5.03946 21.2791 5.03946 22.6776C5.03946 23.3458 5.30493 23.9867 5.77747 24.4593C6.25001 24.9318 6.89091 25.1973 7.55918 25.1973C8.22746 25.1973 8.86836 24.9318 9.3409 24.4593C9.81344 23.9867 10.0789 23.3458 10.0789 22.6776C10.0789 21.2791 8.94503 20.1578 7.55918 20.1578Z" fill="#41197F"/>
</svg>
